<?xml version="1.0" encoding="UTF-8" standalone="no"?>
<!-- Created with Inkscape (http://www.inkscape.org/) -->

<svg
   xmlns:dc="http://purl.org/dc/elements/1.1/"
   xmlns:cc="http://creativecommons.org/ns#"
   xmlns:rdf="http://www.w3.org/1999/02/22-rdf-syntax-ns#"
   xmlns:svg="http://www.w3.org/2000/svg"
   xmlns="http://www.w3.org/2000/svg"
   xmlns:sodipodi="http://sodipodi.sourceforge.net/DTD/sodipodi-0.dtd"
   xmlns:inkscape="http://www.inkscape.org/namespaces/inkscape"
   width="32mm"
   height="32mm"
   viewBox="0 0 32 32"
   version="1.1"
   id="svg8"
   inkscape:version="0.92.1 r"
   sodipodi:docname="Koenig_weiss_test.svg">
  <defs
     id="defs2" />
  <sodipodi:namedview
     id="base"
     pagecolor="#ffffff"
     bordercolor="#666666"
     borderopacity="1.0"
     inkscape:pageopacity="0.0"
     inkscape:pageshadow="2"
     inkscape:zoom="2.8"
     inkscape:cx="-19.935372"
     inkscape:cy="77.051742"
     inkscape:document-units="mm"
     inkscape:current-layer="layer1"
     showgrid="false"
     fit-margin-top="0"
     fit-margin-left="0"
     fit-margin-right="0"
     fit-margin-bottom="0"
     inkscape:window-width="1920"
     inkscape:window-height="1019"
     inkscape:window-x="0"
     inkscape:window-y="0"
     inkscape:window-maximized="1" />
  <metadata
     id="metadata5">
    <rdf:RDF>
      <cc:Work
         rdf:about="">
        <dc:format>image/svg+xml</dc:format>
        <dc:type
           rdf:resource="http://purl.org/dc/dcmitype/StillImage" />
        <dc:title />
      </cc:Work>
    </rdf:RDF>
  </metadata>
  <g
     inkscape:label="Ebene 1"
     inkscape:groupmode="layer"
     id="layer1"
     transform="translate(-13.830637,-12.937682)">
    <path
       style="fill:#e1e1e1;fill-opacity:1;fill-rule:evenodd;stroke:#323232;stroke-width:1.88976383;stroke-linecap:butt;stroke-linejoin:miter;stroke-miterlimit:4;stroke-dasharray:none;stroke-opacity:1"
       d="m 60.103246,2.4536721 -5.330555,4.5494655 -5.330555,-4.5494655 -5.330555,4.5494655 -5.330555,-2.995894 0.04564,10.5770034 c -16.742318,9.738423 -14.613165,31.953119 8.524893,44.3513 L 47.25,66.658203 4.5097656,66.730469 c -0.958216,2.546721 -1.8940094,5.194738 -2.8066406,7.945312 31.306568,0 31.073019,26.499609 0,26.671879 v 18.14648 H 119.20703 V 100.6582 c -31.975238,0.10178 -31.983447,-26.240097 0,-26.328122 -0.65143,-2.628094 -1.40419,-5.223235 -2.25,-7.77539 l -45.277342,0.07812 -0.138672,-7.689453 C 94.995702,45.935875 98.349734,24.138176 81.248003,14.584247 L 81.425466,4.0072436 76.094911,7.0031376 70.764356,2.4536721 65.433801,7.0031376 Z M 50.125,28.158203 c 3.501527,-3.09e-4 6.340153,2.838317 6.339844,6.339844 3.09e-4,3.501527 -2.838317,6.340153 -6.339844,6.339844 -3.501527,3.09e-4 -6.340153,-2.838317 -6.339844,-6.339844 -3.09e-4,-3.501527 2.838317,-6.340153 6.339844,-6.339844 z m 20.535156,0 c 3.501527,-3.09e-4 6.340153,2.838317 6.339844,6.339844 3.09e-4,3.501527 -2.838317,6.340153 -6.339844,6.339844 -3.500764,-7.71e-4 -6.338199,-2.83908 -6.33789,-6.339844 -3.09e-4,-3.500764 2.837126,-6.339073 6.33789,-6.339844 z"
       transform="matrix(0.26458333,0,0,0.26458333,13.830637,12.937682)"
       id="path574"
       inkscape:connector-curvature="0"
       sodipodi:nodetypes="cccccccccccccccccccccccccccccccccc" />
  </g>
</svg>
