<?xml version="1.0" encoding="UTF-8" standalone="no"?>
<!-- Created with Inkscape (http://www.inkscape.org/) -->

<svg
   xmlns:dc="http://purl.org/dc/elements/1.1/"
   xmlns:cc="http://creativecommons.org/ns#"
   xmlns:rdf="http://www.w3.org/1999/02/22-rdf-syntax-ns#"
   xmlns:svg="http://www.w3.org/2000/svg"
   xmlns="http://www.w3.org/2000/svg"
   xmlns:sodipodi="http://sodipodi.sourceforge.net/DTD/sodipodi-0.dtd"
   xmlns:inkscape="http://www.inkscape.org/namespaces/inkscape"
   width="32mm"
   height="32mm"
   viewBox="0 0 32 32"
   version="1.1"
   id="svg8"
   inkscape:version="0.92.1 r"
   sodipodi:docname="Springer_weiss_test.svg">
  <defs
     id="defs2" />
  <sodipodi:namedview
     id="base"
     pagecolor="#ffffff"
     bordercolor="#666666"
     borderopacity="1.0"
     inkscape:pageopacity="0.0"
     inkscape:pageshadow="2"
     inkscape:zoom="3.959798"
     inkscape:cx="36.641603"
     inkscape:cy="94.144725"
     inkscape:document-units="mm"
     inkscape:current-layer="layer1"
     showgrid="false"
     fit-margin-top="0"
     fit-margin-left="0"
     fit-margin-right="0"
     fit-margin-bottom="0"
     inkscape:window-width="1920"
     inkscape:window-height="1019"
     inkscape:window-x="0"
     inkscape:window-y="0"
     inkscape:window-maximized="1" />
  <metadata
     id="metadata5">
    <rdf:RDF>
      <cc:Work
         rdf:about="">
        <dc:format>image/svg+xml</dc:format>
        <dc:type
           rdf:resource="http://purl.org/dc/dcmitype/StillImage" />
        <dc:title />
      </cc:Work>
    </rdf:RDF>
  </metadata>
  <g
     inkscape:label="Ebene 1"
     inkscape:groupmode="layer"
     id="layer1"
     transform="translate(-13.830637,-12.937682)">
    <path
       style="fill:#e1e1e1;fill-opacity:1;fill-rule:evenodd;stroke:#323232;stroke-width:1.88976383;stroke-linecap:butt;stroke-linejoin:miter;stroke-miterlimit:4;stroke-dasharray:none;stroke-opacity:1"
       d="M 33.632812 1.5136719 C 30.31803 1.4507029 26.876208 5.6872824 23.388672 17.259766 C 6.5537868 27.14261 0.48510043 51.176123 1.703125 74.675781 C 33.009693 74.675781 32.776144 101.17539 1.703125 101.34766 L 1.703125 119.49414 L 119.20703 119.49414 L 119.20703 100.6582 C 95.752372 99.690648 85.27846 92.4219 73.001953 64.115234 C 149.51911 110.10318 123.48018 35.117484 45.630859 16.632812 C 41.948353 8.7846098 37.894676 1.594632 33.632812 1.5136719 z M 65.154297 33.314453 A 5.0507626 5.0507626 0 0 1 70.205078 38.365234 A 5.0507626 5.0507626 0 0 1 65.154297 43.416016 A 5.0507626 5.0507626 0 0 1 60.103516 38.365234 A 5.0507626 5.0507626 0 0 1 65.154297 33.314453 z "
       transform="matrix(0.26458333,0,0,0.26458333,13.830637,12.937682)"
       id="path574" />
  </g>
</svg>
