<?xml version="1.0" encoding="UTF-8" standalone="no"?>
<!-- Created with Inkscape (http://www.inkscape.org/) -->

<svg
   xmlns:dc="http://purl.org/dc/elements/1.1/"
   xmlns:cc="http://creativecommons.org/ns#"
   xmlns:rdf="http://www.w3.org/1999/02/22-rdf-syntax-ns#"
   xmlns:svg="http://www.w3.org/2000/svg"
   xmlns="http://www.w3.org/2000/svg"
   xmlns:sodipodi="http://sodipodi.sourceforge.net/DTD/sodipodi-0.dtd"
   xmlns:inkscape="http://www.inkscape.org/namespaces/inkscape"
   width="32mm"
   height="32mm"
   viewBox="0 0 32 32"
   version="1.1"
   id="svg8"
   inkscape:version="0.92.1 r"
   sodipodi:docname="Dame_weiss_test.svg">
  <defs
     id="defs2" />
  <sodipodi:namedview
     id="base"
     pagecolor="#ffffff"
     bordercolor="#666666"
     borderopacity="1.0"
     inkscape:pageopacity="0.0"
     inkscape:pageshadow="2"
     inkscape:zoom="5.6"
     inkscape:cx="37.264779"
     inkscape:cy="74.799565"
     inkscape:document-units="mm"
     inkscape:current-layer="layer1"
     showgrid="false"
     fit-margin-top="0"
     fit-margin-left="0"
     fit-margin-right="0"
     fit-margin-bottom="0"
     inkscape:window-width="1920"
     inkscape:window-height="1019"
     inkscape:window-x="0"
     inkscape:window-y="0"
     inkscape:window-maximized="1" />
  <metadata
     id="metadata5">
    <rdf:RDF>
      <cc:Work
         rdf:about="">
        <dc:format>image/svg+xml</dc:format>
        <dc:type
           rdf:resource="http://purl.org/dc/dcmitype/StillImage" />
        <dc:title />
      </cc:Work>
    </rdf:RDF>
  </metadata>
  <g
     inkscape:label="Ebene 1"
     inkscape:groupmode="layer"
     id="layer1"
     transform="translate(-13.830637,-12.937682)">
    <path
       style="fill:#e1e1e1;fill-opacity:1;fill-rule:evenodd;stroke:#323232;stroke-width:1.88976383;stroke-linecap:butt;stroke-linejoin:miter;stroke-miterlimit:4;stroke-dasharray:none;stroke-opacity:1"
       d="M 59.058594 2.0332031 C 44.991587 1.9329346 31.073615 6.792297 27.371094 16.855469 C 13.042965 15.577044 4.8563057 15.439162 2.8378906 16.441406 C 1.5761105 17.067946 2.725126 18.14093 6.2910156 19.660156 C 7.8505167 20.324571 1.1227491 25.360011 3.6074219 26.195312 C 4.9397053 26.643187 7.5020671 26.577848 10.517578 26.380859 C 12.536772 26.248954 4.0457245 33.735899 6.2382812 33.599609 C 7.7629351 33.504849 11.013453 32.188479 14.509766 30.695312 C 17.152279 29.566777 8.8630349 46.193753 11.144531 45.314453 C 13.331339 44.471652 26.130784 26.095035 26.833984 26.292969 C 28.402125 33.967534 34.539385 43.498122 47.351562 54.935547 L 47.25 66.658203 L 4.5097656 66.730469 C 3.5515496 69.27719 2.6157562 71.925207 1.703125 74.675781 C 33.009693 74.675781 32.776144 101.17539 1.703125 101.34766 L 1.703125 119.49414 L 119.20703 119.49414 L 119.20703 100.6582 C 87.231792 100.75998 87.223583 74.418103 119.20703 74.330078 C 118.5556 71.701984 117.80284 69.106843 116.95703 66.554688 L 71.679688 66.632812 L 71.541016 54.943359 C 84.479657 44.217156 90.760759 35.068147 92.46875 27.544922 C 93.69247 27.280895 102.89185 41.159125 107.60742 43.396484 C 109.01881 44.06613 105.96412 33.126085 107.27734 33.720703 C 109.90114 34.908733 112.13921 35.809097 113.23828 35.873047 C 116.10155 36.039648 107.4482 27.735082 109.99219 27.875 C 112.52473 28.014276 114.65191 28.027394 115.88281 27.693359 C 118.73986 26.918042 112.79992 22.45648 114.45312 21.808594 C 117.10045 20.771121 118.15542 19.897921 117.46289 19.191406 C 116.09346 17.794327 107.89031 17.049432 91.648438 16.976562 C 87.342807 7.1939363 73.125601 2.1334716 59.058594 2.0332031 z M 50.125 20.158203 A 6.3392854 6.3392854 0 0 1 56.464844 26.498047 A 6.3392854 6.3392854 0 0 1 50.125 32.837891 A 6.3392854 6.3392854 0 0 1 43.785156 26.498047 A 6.3392854 6.3392854 0 0 1 50.125 20.158203 z M 70.660156 20.158203 A 6.3392855 6.3392855 0 0 1 77 26.498047 A 6.3392855 6.3392855 0 0 1 70.660156 32.837891 A 6.3392855 6.3392855 0 0 1 64.322266 26.498047 A 6.3392855 6.3392855 0 0 1 70.660156 20.158203 z "
       transform="matrix(0.26458333,0,0,0.26458333,13.830637,12.937682)"
       id="path574" />
  </g>
</svg>
